<svg xmlns="http://www.w3.org/2000/svg" xmlns:xlink="http://www.w3.org/1999/xlink" version="1.1" x="0px" y="0px" viewBox="0 0 100 125" enable-background="new 0 0 100 100" xml:space="preserve"><path fill="#000000" d="M96.495,58.158c-1.892-4.594-7.61-10.118-13.458-11.864c2.054-11.688-6.658-20.638-14.968-25.825  C58.341,14.394,41.444,6.958,30.194,5.901c-4.43-0.209,7.35,4.555,15.165,10.288c3.954,2.902,5.077,3.935,8.535,6.663  c3.624,2.857,8.62,7.183,7.599,12.222c-0.972,4.799-5.688,5.953-9.849,5.548c-8.995-0.88-30.394-9.777-39.077-12.229  C-7.858,22.624,30.72,39.498,32.044,42.208c-2.346,1.033-29.398-4.879-29.57-1.422C2.396,42.384,41.185,53.516,44.53,55.02  c3.256,1.463,8.693,3.918,9.203,9.42c0.666,7.211-4.544,12.225-10.344,14.375c-5.916,2.193-11.246,3.045-17.473,4.043  c-2.082,0.336-16.908,2.152-9.241,3.168c-0.221-0.031,19.233,2.955,30.475,0.514c10.221-2.219,17.561-7.412,24.692-15.764  c3.036-3.553,4.242-5.975,8.236-5.998c3.308-0.02,6.659-0.645,9.788-1.777c3.417-1.238,4.883-2.334,6.577-4.758L96.495,58.158z"/><text x="0" y="115" fill="#000000" font-size="5px" font-weight="bold" font-family="'Helvetica Neue', Helvetica, Arial-Unicode, Arial, Sans-serif">Created by corpus delicti</text><text x="0" y="120" fill="#000000" font-size="5px" font-weight="bold" font-family="'Helvetica Neue', Helvetica, Arial-Unicode, Arial, Sans-serif">from the Noun Project</text></svg>